<svg id="Capa_2" data-name="Capa 2" xmlns="http://www.w3.org/2000/svg" xmlns:xlink="http://www.w3.org/1999/xlink" viewBox="0 0 419.84 614.64"><defs><style>.cls-1,.cls-2,.cls-5,.cls-6,.cls-7{fill:none;stroke-miterlimit:10;}.cls-1,.cls-2{stroke:#000;}.cls-2,.cls-6{stroke-width:13px;}.cls-3{fill:url(#Degradado_sin_nombre_29);}.cls-4{fill:url(#Degradado_sin_nombre_29-2);}.cls-5,.cls-6{stroke:#f2f3f4;}.cls-5,.cls-7{stroke-width:10px;}.cls-7{stroke:#fff;}.cls-8{fill:#f0f;}.cls-9{fill:url(#Degradado_sin_nombre_37);}.cls-10{fill:#0061a4;}</style><linearGradient id="Degradado_sin_nombre_29" x1="105.77" y1="287.35" x2="488.61" y2="287.35" gradientUnits="userSpaceOnUse"><stop offset="0" stop-color="#0061a4"/><stop offset="0.09" stop-color="#0e6aa9"/><stop offset="0.26" stop-color="#3380b6"/><stop offset="0.5" stop-color="#6ea5cb"/><stop offset="0.79" stop-color="#bfd7e8"/><stop offset="1" stop-color="#fff"/></linearGradient><linearGradient id="Degradado_sin_nombre_29-2" x1="78.25" y1="345" x2="412.06" y2="345" xlink:href="#Degradado_sin_nombre_29"/><linearGradient id="Degradado_sin_nombre_37" x1="251.72" y1="40.52" x2="332.76" y2="40.52" gradientUnits="userSpaceOnUse"><stop offset="0" stop-color="#0061a4"/><stop offset="0.09" stop-color="#0765a7"/><stop offset="0.22" stop-color="#1b71ad"/><stop offset="0.37" stop-color="#3b85b9"/><stop offset="0.54" stop-color="#67a1c9"/><stop offset="0.73" stop-color="#a1c5dd"/><stop offset="0.93" stop-color="#e5eff6"/><stop offset="1" stop-color="#fff"/></linearGradient></defs><title>Logo1.2</title><path class="cls-1" d="M290.06,293.12" transform="translate(-73.25 -93.52)"/><path class="cls-2" d="M788.79,754.26" transform="translate(-73.25 -93.52)"/><path class="cls-3" d="M488.57,385.54l0,0a217.31,217.31,0,0,1-76.54,85.8h0c-1.46-3.05-3-6.07-4.51-9.09-12.78-25-28.11-48.74-46.62-69.88s-40.39-39.78-65-53.58c-25.36-14.21-53-23.14-79.3-35.32A205.65,205.65,0,0,1,149,253.63c-18.13-20.36-32.29-44.06-42.54-69.28l-.65-.36a217.23,217.23,0,0,1,78.81-80.67c2.56,4.8,3.61,10.11,4.85,15.45A61.13,61.13,0,0,0,196,136.1c6.54,11.28,15.67,20.3,25.48,28.66a4.36,4.36,0,0,0,1.19,6c5.52,3.75,7.41,11.31,12.36,15.75,5.37,4.82,12.19,8.16,18.45,11.64,3.16,1.76,6.52,3.56,10,5.21,6.53,5.37,12.81,10.72,20.83,14.2,2.81,1.22,5.65,2.39,8.5,3.55a4.08,4.08,0,0,0,2.54,2.23,28.18,28.18,0,0,1,4.13,1.8,4.9,4.9,0,0,0,1.35.73c4.52,2.52,8.67,5.51,13.87,5.78a24.34,24.34,0,0,0,7,4.79c1.1.51,2.19,1,3.29,1.48,3.57,2,7.41,3.72,11,5.48,11.55,5.65,23.27,10.95,34.86,16.52,11.27,5.41,22.52,11,32.86,18.09,9,6.14,16.87,13.69,25.29,20.56a4.57,4.57,0,0,0,2.77,4.75c-1.26-.53-.19,0,.06.68s.81,1.58,1.17,2.37a26.8,26.8,0,0,0,2.42,4.43c2.71,3.77,6,7.11,9,10.64,6.26,7.31,12.89,14.14,19.44,21.2a76.82,76.82,0,0,1,8.84,11.17c2.75,4.37,4.58,9.16,6.73,13.83a97.85,97.85,0,0,0,7,12.76c.21.32.43.64.66.95A7.79,7.79,0,0,0,488.57,385.54Z" transform="translate(-73.25 -93.52)"/><path class="cls-4" d="M412.06,471.38A215.22,215.22,0,0,1,294.61,506c-119.5,0-216.36-96.88-216.36-216.38A215.23,215.23,0,0,1,105.77,184l.65.36c10.25,25.22,24.41,48.92,42.54,69.28a205.65,205.65,0,0,0,67.64,49.88c26.28,12.18,53.94,21.11,79.3,35.32,24.64,13.8,46.47,32.37,65,53.58s33.84,44.91,46.62,69.88C409.1,465.31,410.6,468.33,412.06,471.38Z" transform="translate(-73.25 -93.52)"/><path class="cls-5" d="M412.06,471.38A215.22,215.22,0,0,1,294.61,506c-119.5,0-216.36-96.88-216.36-216.38A216.28,216.28,0,0,1,184.58,103.32" transform="translate(-73.25 -93.52)"/><path class="cls-5" d="M488.61,385.58a217.31,217.31,0,0,1-76.54,85.8" transform="translate(-73.25 -93.52)"/><path class="cls-6" d="M412.07,471.38l.27.57" transform="translate(-73.25 -93.52)"/><line class="cls-5" x1="338.81" y1="377.86" x2="338.82" y2="377.86"/><path class="cls-6" d="M106.42,184.35c10.25,25.22,24.41,48.92,42.54,69.28a205.65,205.65,0,0,0,67.64,49.88c26.28,12.18,53.94,21.11,79.3,35.32,24.64,13.8,46.47,32.37,65,53.58s33.84,44.91,46.62,69.88c1.55,3,3.05,6,4.51,9.09" transform="translate(-73.25 -93.52)"/><path class="cls-7" d="M183.48,104.69c10.2,25.74,24.37,50.07,42.76,70.84a210.15,210.15,0,0,0,62,47.55c25.49,13,53.08,21.34,78.51,34.52,25.23,13.07,47.81,31,67.07,51.83S469.08,354,482.4,379q2.7,5.08,5.27,10.23" transform="translate(-73.25 -93.52)"/><circle class="cls-8" cx="294.63" cy="49.3" r="38.13"/><circle class="cls-9" cx="292.24" cy="40.52" r="40.52"/><path class="cls-10" d="M157.19,608.45c-.7,0-1-.33-.89-1l8.12-51.91c.11-.66.43-1,1-1h15q12.67,0,18.19,6.05t3.58,18.31l-.73,4.6a38.54,38.54,0,0,1-4.63,14,20.78,20.78,0,0,1-9,8.26,32.71,32.71,0,0,1-14.14,2.72Zm9.83-8.39h7q8.12,0,12.35-3.91t5.6-12.46l.81-5.19q1.3-7.89-1.86-11.72T179.37,563h-6.58Z" transform="translate(-73.25 -93.52)"/><path class="cls-10" d="M208.78,608.45q-1,0-.81-1l8.12-51.91a1,1,0,0,1,1.06-1h30.38a1,1,0,0,1,.69.25.64.64,0,0,1,.12.74l-1.05,6.75q-.16.9-.9.9h-22L222.26,577h19.83q1,0,.81,1l-1,6.33c-.11.66-.4,1-.89,1H221l-2.27,14.48h21.69c.7,0,1,.3.89.91l-1.05,6.74c-.11.66-.44,1-1,1Z" transform="translate(-73.25 -93.52)"/><path class="cls-10" d="M251.75,608.45q-1,0-.81-1l8.12-51.91a1,1,0,0,1,1.06-1h7.56c.7,0,1,.33.89,1l-6.91,44.26h21c.65,0,.92.33.82,1l-1.06,6.66c-.11.66-.43,1-1,1Z" transform="translate(-73.25 -93.52)"/><path class="cls-10" d="M289.45,608.45q-1,0-.9-1l9.26-51.91c.11-.66.44-1,1-1h10a1,1,0,0,1,.73.25,1.34,1.34,0,0,1,.33.74l8.45,29.86,17.79-29.86a1.63,1.63,0,0,1,1.38-1h10.32q1,0,.81,1l-7,51.91c-.11.66-.43,1-1,1h-7.56q-.88,0-.81-1l3.57-26.74q.42-3.19,1.06-6.54c.43-2.22.87-4.4,1.3-6.54H338c-1.14,2.09-2.35,4.21-3.62,6.38s-2.58,4.32-3.94,6.46l-13.24,21.39a1.27,1.27,0,0,1-1.14.66h-.32a.88.88,0,0,1-1-.66l-6.42-21.64q-1-3.12-1.86-6.33t-1.63-6.26h-.24q-.33,3.14-.77,6.42c-.3,2.2-.64,4.36-1,6.5L298,607.46c-.17.66-.49,1-1,1Z" transform="translate(-73.25 -93.52)"/><path class="cls-10" d="M346.88,608.45c-.32,0-.53-.08-.61-.25a1.07,1.07,0,0,1,0-.74l25.27-51.91c.32-.66.68-1,1.06-1H383c.49,0,.82.33,1,1l9.18,51.91q.17,1-.9,1h-8.36c-.54,0-.87-.33-1-1l-4.71-32.17q-.4-3-.81-6c-.27-2.06-.52-4.1-.73-6.13h-.16q-1.23,3-2.56,6c-.9,2-1.83,4-2.81,6.12l-14.7,32.17c-.33.66-.73,1-1.22,1Zm12.84-11.27,3.09-8.06h19.41l.65,8.06Z" transform="translate(-73.25 -93.52)"/><path class="cls-10" d="M418.78,609.44q-10,0-14.83-5.23t-3.21-15.67l5.2-33c.11-.66.44-1,1-1h7.63c.66,0,.93.33.82,1l-5.2,33.16q-.9,5.84,1.22,9c1.4,2.12,4.06,3.17,8,3.17,3.73,0,6.66-1,8.77-3.13s3.47-5.18,4.06-9.29l5.2-32.91c.11-.66.44-1,1-1H446c.65,0,.92.33.82,1l-5.28,33.73a28.8,28.8,0,0,1-3.94,11.07,18.69,18.69,0,0,1-7.56,6.78A25.14,25.14,0,0,1,418.78,609.44Z" transform="translate(-73.25 -93.52)"/><path class="cls-10" d="M160.68,708.16A29.4,29.4,0,0,1,150,706.43a11,11,0,0,1-6.17-5.35q-1.8-3.62-.65-9.29a1.15,1.15,0,0,1,1.21-1h7.15c.76,0,1.06.36.9,1.07a6.92,6.92,0,0,0,.49,4.61,5.68,5.68,0,0,0,3.24,2.51,16.62,16.62,0,0,0,5.37.78c3.41,0,6-.61,7.67-1.81a6,6,0,0,0,2.56-5.19,5.87,5.87,0,0,0-.61-2.79,6.83,6.83,0,0,0-1.91-2.18,18.8,18.8,0,0,0-3.49-2.1l-9.42-4.61a19.68,19.68,0,0,1-5-3.33,12,12,0,0,1-2.92-4.28,14.77,14.77,0,0,1-1-5.55q0-7.41,5.2-11.48t14.22-4.07a27.69,27.69,0,0,1,10.36,1.73,11.52,11.52,0,0,1,6.13,5.26q1.86,3.54.81,9c-.16.66-.49,1-1,1h-7.48c-.65,0-.92-.36-.81-1.07q.5-4.11-1.95-5.84a14,14,0,0,0-13.4,0,5.41,5.41,0,0,0-2.44,4.73,5.79,5.79,0,0,0,.57,2.51,6.11,6.11,0,0,0,1.74,2.13,17.86,17.86,0,0,0,3.13,1.94l9.43,4.6a22.16,22.16,0,0,1,5.48,3.54,12.07,12.07,0,0,1,3.13,4.45,15.56,15.56,0,0,1,1,5.75q0,7.65-5.36,11.89T160.68,708.16Z" transform="translate(-73.25 -93.52)"/><path class="cls-10" d="M189.44,707.17q-1,0-.81-1l8.12-51.91a1,1,0,0,1,1.06-1h30.38a1,1,0,0,1,.69.24.65.65,0,0,1,.13.74L228,661c-.11.6-.41.9-.89.9H205l-2.11,13.83h19.82c.65,0,.92.32.81,1l-1,6.34c-.11.65-.41,1-.9,1H201.63l-2.28,14.48H221c.71,0,1,.3.9.91l-1.06,6.74c-.11.66-.43,1-1,1Z" transform="translate(-73.25 -93.52)"/><path class="cls-10" d="M249.32,708.16a18.52,18.52,0,0,1-10-2.51,13.52,13.52,0,0,1-5.68-7.2,22.83,22.83,0,0,1-.69-11.11l2.35-15.46q1.47-9.63,7.11-14.6t16-5a26.16,26.16,0,0,1,11.25,2.14,13,13,0,0,1,6.46,6.21,15.41,15.41,0,0,1,.89,9.67c-.06.6-.35.9-.89.9h-7.64q-1,0-.81-1,.65-4.51-1.95-7c-1.74-1.62-4.47-2.43-8.21-2.43s-6.71.94-8.77,2.8-3.39,4.77-4,8.72L242.49,687q-1,6.33,1.55,9.41c1.67,2.06,4.41,3.09,8.2,3.09s6.7-.9,8.9-2.72a12.62,12.62,0,0,0,4.18-8l.41-2.47H254.92c-.65,0-.92-.3-.81-.91l.81-5.43c.16-.66.49-1,1-1h19c.65,0,.92.32.81,1l-2.36,15.14q-.48,3.29-.77,6.05a48.47,48.47,0,0,0-.28,5,.87.87,0,0,1-1,1h-6.17a.87.87,0,0,1-1-1c0-.6,0-1.37.13-2.3s.14-1.81.2-2.63h-.08a19.37,19.37,0,0,1-4.11,3.82,17,17,0,0,1-4.95,2.31A22,22,0,0,1,249.32,708.16Z" transform="translate(-73.25 -93.52)"/><path class="cls-10" d="M304.07,708.16q-10,0-14.82-5.23T286,687.26l5.2-33c.1-.66.43-1,1-1h7.64c.65,0,.92.32.81,1l-5.2,33.16q-.9,5.84,1.22,9c1.41,2.12,4.06,3.17,8,3.17q5.61,0,8.77-3.12t4.07-9.3l5.19-32.91c.11-.66.44-1,1-1h7.64c.65,0,.92.32.81,1L326.82,688a28.8,28.8,0,0,1-3.94,11.07,18.56,18.56,0,0,1-7.56,6.78A25.14,25.14,0,0,1,304.07,708.16Z" transform="translate(-73.25 -93.52)"/><path class="cls-10" d="M336.08,707.17q-1,0-.81-1l8.12-51.91a1,1,0,0,1,1.06-1h16.08q9.27,0,13.69,3.49t4.43,9.92A18.59,18.59,0,0,1,375.28,678,17.14,17.14,0,0,1,366,684.3v.08l9.51,21.72a.73.73,0,0,1,0,.7.79.79,0,0,1-.77.37h-8.61a1.14,1.14,0,0,1-1.14-.82l-8.69-20.73H348l-3.25,20.56a1,1,0,0,1-1.06,1Zm13.16-29.29h7.64c3.79,0,6.75-.76,8.89-2.3s3.21-4.14,3.21-7.82q0-3.36-2.23-4.77t-6.95-1.4h-8Z" transform="translate(-73.25 -93.52)"/><path class="cls-10" d="M403.51,708.16q-10.65,0-15.32-5.6t-3.12-15.46l2.43-15.3q1.54-9.88,7.27-14.69t16-4.81q10.63,0,15.35,5.55t3.09,15.51l-2.36,15.3q-1.54,9.87-7.27,14.69T403.51,708.16Zm1.05-8.64c3.69.06,6.58-.84,8.7-2.67s3.49-4.71,4.14-8.6l2.27-14.73q1.06-6.33-1.54-9.46t-8.37-3.12c-3.73-.06-6.66.82-8.77,2.63s-3.47,4.69-4.06,8.64l-2.28,14.72q-1,6.35,1.55,9.46T404.56,699.52Z" transform="translate(-73.25 -93.52)"/><path class="cls-10" d="M451.6,708.16a29.36,29.36,0,0,1-10.72-1.73,11,11,0,0,1-6.18-5.35q-1.79-3.62-.65-9.29a1.16,1.16,0,0,1,1.22-1h7.15c.76,0,1.06.36.89,1.07a7,7,0,0,0,.49,4.61,5.67,5.67,0,0,0,3.25,2.51,16.55,16.55,0,0,0,5.36.78c3.41,0,6-.61,7.68-1.81a6,6,0,0,0,2.56-5.19A5.87,5.87,0,0,0,462,690a7,7,0,0,0-1.91-2.18,19.15,19.15,0,0,0-3.49-2.1l-9.43-4.61a19.62,19.62,0,0,1-5-3.33,12,12,0,0,1-2.93-4.28,14.78,14.78,0,0,1-1-5.55q0-7.41,5.2-11.48t14.21-4.07a27.65,27.65,0,0,1,10.36,1.73,11.49,11.49,0,0,1,6.13,5.26q1.88,3.54.82,9c-.17.66-.49,1-1,1h-7.47c-.65,0-.92-.36-.81-1.07q.48-4.11-1.95-5.84a14,14,0,0,0-13.41,0,5.43,5.43,0,0,0-2.44,4.73,5.79,5.79,0,0,0,.57,2.51,6,6,0,0,0,1.75,2.13,17.49,17.49,0,0,0,3.13,1.94l9.42,4.6a22,22,0,0,1,5.48,3.54,12,12,0,0,1,3.13,4.45,15.56,15.56,0,0,1,1,5.75q0,7.65-5.36,11.89T451.6,708.16Z" transform="translate(-73.25 -93.52)"/></svg>